<svg xmlns="http://www.w3.org/2000/svg" width="952" height="450">
	<rect width="100%" height="100%" fill="rgb(184, 228, 250)" />
	<line x1="0" x2="952" y1="72" y2="72" stroke="black" stroke-width="2"/>
	<line x1="0" x2="952" y1="84" y2="84" stroke="black" stroke-width="2"/>
	<line x1="0" x2="952" y1="96" y2="96" stroke="black" stroke-width="2"/>
	<line x1="0" x2="952" y1="108" y2="108" stroke="black" stroke-width="2"/>
	<line x1="0" x2="952" y1="120" y2="120" stroke="black" stroke-width="2"/>
	
	<line x1="0" x2="952" y1="168" y2="168" stroke="black" stroke-width="2"/>
	<line x1="0" x2="952" y1="180" y2="180" stroke="black" stroke-width="2"/>
	<line x1="0" x2="952" y1="192" y2="192" stroke="black" stroke-width="2"/>
	<line x1="0" x2="952" y1="204" y2="204" stroke="black" stroke-width="2"/>
	<line x1="0" x2="952" y1="216" y2="216" stroke="black" stroke-width="2"/>
	
	<line x1="0" x2="952" y1="264" y2="264" stroke="black" stroke-width="2"/>
	<line x1="0" x2="952" y1="276" y2="276" stroke="black" stroke-width="2"/>
	<line x1="0" x2="952" y1="288" y2="288" stroke="black" stroke-width="2"/>
	<line x1="0" x2="952" y1="300" y2="300" stroke="black" stroke-width="2"/>
	<line x1="0" x2="952" y1="312" y2="312" stroke="black" stroke-width="2"/>
	
	<line x1="0" x2="952" y1="360" y2="360" stroke="black" stroke-width="2"/>
	<line x1="0" x2="952" y1="372" y2="372" stroke="black" stroke-width="2"/>
	<line x1="0" x2="952" y1="384" y2="384" stroke="black" stroke-width="2"/>
	<line x1="0" x2="952" y1="396" y2="396" stroke="black" stroke-width="2"/>
	<line x1="0" x2="952" y1="408" y2="408" stroke="black" stroke-width="2"/>
	
</svg>